<?xml version="1.0" encoding="UTF-8" standalone="no"?>
<!DOCTYPE svg PUBLIC "-//W3C//DTD SVG 1.1//EN"
 "http://www.w3.org/Graphics/SVG/1.1/DTD/svg11.dtd">
<!-- Generated by graphviz version 2.47.0 (20210316.0004)
 -->
<!-- Title: dependencies Pages: 1 -->
<svg width="890pt" height="352pt"
 viewBox="0.00 0.00 890.00 352.00" xmlns="http://www.w3.org/2000/svg" xmlns:xlink="http://www.w3.org/1999/xlink">
<g id="graph0" class="graph" transform="scale(1 1) rotate(0) translate(4 348)">
<title>dependencies</title>
<polygon fill="white" stroke="transparent" points="-4,4 -4,-348 886,-348 886,4 -4,4"/>
<text text-anchor="start" x="420.01" y="-42.4" font-family="Times-12" font-weight="bold" font-size="14.00">Legend</text>
<polygon fill="#ffffb3" stroke="transparent" points="207,-10 207,-30 227,-30 227,-10 207,-10"/>
<text text-anchor="start" x="230.63" y="-15.4" font-family="Times-12" font-size="14.00"> &#160;Declarations</text>
<polygon fill="#8dd3c7" stroke="transparent" points="320,-10 320,-30 340,-30 340,-10 320,-10"/>
<text text-anchor="start" x="343.73" y="-15.4" font-family="Times-12" font-size="14.00"> &#160;Module</text>
<polygon fill="#80b1d3" stroke="transparent" points="406,-10 406,-30 426,-30 426,-10 406,-10"/>
<text text-anchor="start" x="429.78" y="-15.4" font-family="Times-12" font-size="14.00"> &#160;Bootstrap</text>
<polygon fill="#fdb462" stroke="transparent" points="503,-10 503,-30 523,-30 523,-10 503,-10"/>
<text text-anchor="start" x="526.67" y="-15.4" font-family="Times-12" font-size="14.00"> &#160;Providers</text>
<polygon fill="#fb8072" stroke="transparent" points="599,-10 599,-30 619,-30 619,-10 599,-10"/>
<text text-anchor="start" x="622.73" y="-15.4" font-family="Times-12" font-size="14.00"> &#160;Exports</text>
<g id="clust1" class="cluster">
<title>cluster_AdminsModule</title>
<polygon fill="none" stroke="black" stroke-dasharray="1,5" points="168,-146 168,-271 342,-271 342,-146 168,-146"/>
</g>
<g id="clust6" class="cluster">
<title>cluster_AdminsModule_providers</title>
<polygon fill="none" stroke="black" points="176,-154 176,-206 334,-206 334,-154 176,-154"/>
</g>
<g id="clust7" class="cluster">
<title>cluster_AppModule</title>
<polygon fill="none" stroke="black" stroke-dasharray="1,5" points="350,-146 350,-336 579,-336 579,-146 350,-146"/>
</g>
<g id="clust9" class="cluster">
<title>cluster_AppModule_imports</title>
<polygon fill="none" stroke="black" points="358,-154 358,-271 571,-271 571,-154 358,-154"/>
</g>
<g id="clust13" class="cluster">
<title>cluster_AuthModule</title>
<polygon fill="none" stroke="black" stroke-dasharray="1,5" points="444,-70 444,-138 874,-138 874,-70 444,-70"/>
</g>
<g id="clust18" class="cluster">
<title>cluster_AuthModule_providers</title>
<polygon fill="none" stroke="black" points="452,-78 452,-130 866,-130 866,-78 452,-78"/>
</g>
<g id="clust19" class="cluster">
<title>cluster_PostsModule</title>
<polygon fill="none" stroke="black" stroke-dasharray="1,5" points="587,-146 587,-214 739,-214 739,-146 587,-146"/>
</g>
<g id="clust24" class="cluster">
<title>cluster_PostsModule_providers</title>
<polygon fill="none" stroke="black" points="595,-154 595,-206 731,-206 731,-154 595,-154"/>
</g>
<g id="clust25" class="cluster">
<title>cluster_UsersModule</title>
<polygon fill="none" stroke="black" stroke-dasharray="1,5" points="8,-70 8,-138 436,-138 436,-70 8,-70"/>
</g>
<g id="clust28" class="cluster">
<title>cluster_UsersModule_exports</title>
<polygon fill="none" stroke="black" points="318,-78 318,-130 428,-130 428,-78 318,-78"/>
</g>
<g id="clust30" class="cluster">
<title>cluster_UsersModule_providers</title>
<polygon fill="none" stroke="black" points="16,-78 16,-130 310,-130 310,-78 16,-78"/>
</g>
<!-- AdminsService -->
<g id="node1" class="node">
<title>AdminsService</title>
<ellipse fill="#fdb462" stroke="black" cx="255" cy="-180" rx="70.64" ry="18"/>
<text text-anchor="middle" x="255" y="-175.8" font-family="Times,serif" font-size="14.00">AdminsService</text>
</g>
<!-- AdminsModule -->
<g id="node2" class="node">
<title>AdminsModule</title>
<polygon fill="#8dd3c7" stroke="black" points="319.88,-263 316.88,-267 295.88,-267 292.88,-263 216.12,-263 216.12,-227 319.88,-227 319.88,-263"/>
<text text-anchor="middle" x="268" y="-240.8" font-family="Times,serif" font-size="14.00">AdminsModule</text>
</g>
<!-- AdminsService&#45;&gt;AdminsModule -->
<g id="edge1" class="edge">
<title>AdminsService&#45;&gt;AdminsModule</title>
<path fill="none" stroke="black" d="M268,-197.76C268,-197.76 268,-216.81 268,-216.81"/>
<polygon fill="black" stroke="black" points="264.5,-216.81 268,-226.81 271.5,-216.81 264.5,-216.81"/>
</g>
<!-- AppModule -->
<g id="node6" class="node">
<title>AppModule</title>
<polygon fill="#8dd3c7" stroke="black" points="463.66,-328 460.66,-332 439.66,-332 436.66,-328 380.34,-328 380.34,-292 463.66,-292 463.66,-328"/>
<text text-anchor="middle" x="422" y="-305.8" font-family="Times,serif" font-size="14.00">AppModule</text>
</g>
<!-- AdminsModule&#45;&gt;AppModule -->
<g id="edge2" class="edge">
<title>AdminsModule&#45;&gt;AppModule</title>
<path fill="none" stroke="black" d="M320.17,-245C358.5,-245 403.93,-245 403.93,-245 403.93,-245 403.93,-281.89 403.93,-281.89"/>
<polygon fill="black" stroke="black" points="400.43,-281.89 403.93,-291.89 407.43,-281.89 400.43,-281.89"/>
</g>
<!-- AuthModule -->
<g id="node3" class="node">
<title>AuthModule</title>
<polygon fill="#8dd3c7" stroke="black" points="562.55,-198 559.55,-202 538.55,-202 535.55,-198 475.45,-198 475.45,-162 562.55,-162 562.55,-198"/>
<text text-anchor="middle" x="519" y="-175.8" font-family="Times,serif" font-size="14.00">AuthModule</text>
</g>
<!-- AuthModule&#45;&gt;AppModule -->
<g id="edge3" class="edge">
<title>AuthModule&#45;&gt;AppModule</title>
<path fill="none" stroke="black" d="M551.66,-198.08C551.66,-233.8 551.66,-310 551.66,-310 551.66,-310 473.74,-310 473.74,-310"/>
<polygon fill="black" stroke="black" points="473.74,-306.5 463.74,-310 473.74,-313.5 473.74,-306.5"/>
</g>
<!-- PostsModule -->
<g id="node4" class="node">
<title>PostsModule</title>
<polygon fill="#8dd3c7" stroke="black" points="540.61,-263 537.61,-267 516.61,-267 513.61,-263 451.39,-263 451.39,-227 540.61,-227 540.61,-263"/>
<text text-anchor="middle" x="496" y="-240.8" font-family="Times,serif" font-size="14.00">PostsModule</text>
</g>
<!-- PostsModule&#45;&gt;AppModule -->
<g id="edge4" class="edge">
<title>PostsModule&#45;&gt;AppModule</title>
<path fill="none" stroke="black" d="M457.64,-263.11C457.64,-263.11 457.64,-281.99 457.64,-281.99"/>
<polygon fill="black" stroke="black" points="454.14,-281.99 457.64,-291.99 461.14,-281.99 454.14,-281.99"/>
</g>
<!-- UsersModule -->
<g id="node5" class="node">
<title>UsersModule</title>
<polygon fill="#8dd3c7" stroke="black" points="457.92,-198 454.92,-202 433.92,-202 430.92,-198 366.08,-198 366.08,-162 457.92,-162 457.92,-198"/>
<text text-anchor="middle" x="412" y="-175.8" font-family="Times,serif" font-size="14.00">UsersModule</text>
</g>
<!-- UsersModule&#45;&gt;PostsModule -->
<g id="edge9" class="edge">
<title>UsersModule&#45;&gt;PostsModule</title>
<path fill="none" stroke="black" d="M457.74,-186C464.93,-186 470.05,-186 470.05,-186 470.05,-186 470.05,-216.98 470.05,-216.98"/>
<polygon fill="black" stroke="black" points="466.55,-216.98 470.05,-226.98 473.55,-216.98 466.55,-216.98"/>
</g>
<!-- UsersModule&#45;&gt;AppModule -->
<g id="edge5" class="edge">
<title>UsersModule&#45;&gt;AppModule</title>
<path fill="none" stroke="black" d="M427.69,-198.08C427.69,-198.08 427.69,-281.66 427.69,-281.66"/>
<polygon fill="black" stroke="black" points="424.19,-281.66 427.69,-291.66 431.19,-281.66 424.19,-281.66"/>
</g>
<!-- UsersService  -->
<g id="node11" class="node">
<title>UsersService </title>
<polygon fill="#fb8072" stroke="black" points="419.85,-122 326.15,-122 326.15,-86 419.85,-86 419.85,-122"/>
<text text-anchor="middle" x="373" y="-99.8" font-family="Times,serif" font-size="14.00">UsersService </text>
</g>
<!-- UsersModule&#45;&gt;UsersService  -->
<g id="edge11" class="edge">
<title>UsersModule&#45;&gt;UsersService </title>
<path fill="none" stroke="black" stroke-dasharray="5,2" d="M406.33,-161.99C406.33,-161.99 406.33,-132.15 406.33,-132.15"/>
<polygon fill="black" stroke="black" points="409.83,-132.15 406.33,-122.15 402.83,-132.15 409.83,-132.15"/>
</g>
<!-- AuthService -->
<g id="node7" class="node">
<title>AuthService</title>
<ellipse fill="#fdb462" stroke="black" cx="519" cy="-104" rx="59.11" ry="18"/>
<text text-anchor="middle" x="519" y="-99.8" font-family="Times,serif" font-size="14.00">AuthService</text>
</g>
<!-- AuthService&#45;&gt;AuthModule -->
<g id="edge6" class="edge">
<title>AuthService&#45;&gt;AuthModule</title>
<path fill="none" stroke="black" d="M504.41,-121.63C504.41,-121.63 504.41,-151.94 504.41,-151.94"/>
<polygon fill="black" stroke="black" points="500.91,-151.94 504.41,-161.94 507.91,-151.94 500.91,-151.94"/>
</g>
<!-- AuthService&#45;&gt;UsersModule -->
<g id="edge12" class="edge">
<title>AuthService&#45;&gt;UsersModule</title>
<path fill="none" stroke="black" d="M464.87,-111.49C464.87,-129.55 464.87,-174 464.87,-174 464.87,-174 464.18,-174 464.18,-174"/>
<polygon fill="black" stroke="black" points="467.96,-170.5 457.96,-174 467.96,-177.5 467.96,-170.5"/>
</g>
<!-- JwtStrategy -->
<g id="node8" class="node">
<title>JwtStrategy</title>
<ellipse fill="#fdb462" stroke="black" cx="653" cy="-104" rx="56.76" ry="18"/>
<text text-anchor="middle" x="653" y="-99.8" font-family="Times,serif" font-size="14.00">JwtStrategy</text>
</g>
<!-- JwtStrategy&#45;&gt;AuthModule -->
<g id="edge7" class="edge">
<title>JwtStrategy&#45;&gt;AuthModule</title>
<path fill="none" stroke="black" d="M596.19,-104C590.83,-104 587.34,-104 587.34,-104 587.34,-104 587.34,-180 587.34,-180 587.34,-180 572.67,-180 572.67,-180"/>
<polygon fill="black" stroke="black" points="572.67,-176.5 562.67,-180 572.67,-183.5 572.67,-176.5"/>
</g>
<!-- LocalStrategy -->
<g id="node9" class="node">
<title>LocalStrategy</title>
<ellipse fill="#fdb462" stroke="black" cx="793" cy="-104" rx="65.41" ry="18"/>
<text text-anchor="middle" x="793" y="-99.8" font-family="Times,serif" font-size="14.00">LocalStrategy</text>
</g>
<!-- LocalStrategy&#45;&gt;AuthModule -->
<g id="edge8" class="edge">
<title>LocalStrategy&#45;&gt;AuthModule</title>
<path fill="none" stroke="black" d="M793,-122.21C793,-127.55 793,-132 793,-132 793,-132 533.59,-132 533.59,-132 533.59,-132 533.59,-151.85 533.59,-151.85"/>
<polygon fill="black" stroke="black" points="530.09,-151.85 533.59,-161.85 537.09,-151.85 530.09,-151.85"/>
</g>
<!-- PostsService -->
<g id="node10" class="node">
<title>PostsService</title>
<ellipse fill="#fdb462" stroke="black" cx="663" cy="-180" rx="60.27" ry="18"/>
<text text-anchor="middle" x="663" y="-175.8" font-family="Times,serif" font-size="14.00">PostsService</text>
</g>
<!-- PostsService&#45;&gt;PostsModule -->
<g id="edge10" class="edge">
<title>PostsService&#45;&gt;PostsModule</title>
<path fill="none" stroke="black" d="M663,-198.11C663,-217.34 663,-245 663,-245 663,-245 550.75,-245 550.75,-245"/>
<polygon fill="black" stroke="black" points="550.75,-241.5 540.75,-245 550.75,-248.5 550.75,-241.5"/>
</g>
<!-- UsersService -->
<g id="node12" class="node">
<title>UsersService</title>
<ellipse fill="#fdb462" stroke="black" cx="240" cy="-104" rx="61.95" ry="18"/>
<text text-anchor="middle" x="240" y="-99.8" font-family="Times,serif" font-size="14.00">UsersService</text>
</g>
<!-- UsersService&#45;&gt;UsersModule -->
<g id="edge13" class="edge">
<title>UsersService&#45;&gt;UsersModule</title>
<path fill="none" stroke="black" d="M243.2,-122.11C243.2,-131.9 243.2,-142 243.2,-142 243.2,-142 392.98,-142 392.98,-142 392.98,-142 392.98,-151.89 392.98,-151.89"/>
<polygon fill="black" stroke="black" points="389.48,-151.89 392.98,-161.89 396.48,-151.89 389.48,-151.89"/>
</g>
<!-- ValidateToken -->
<g id="node13" class="node">
<title>ValidateToken</title>
<ellipse fill="#fdb462" stroke="black" cx="92" cy="-104" rx="68.34" ry="18"/>
<text text-anchor="middle" x="92" y="-99.8" font-family="Times,serif" font-size="14.00">ValidateToken</text>
</g>
<!-- ValidateToken&#45;&gt;UsersModule -->
<g id="edge14" class="edge">
<title>ValidateToken&#45;&gt;UsersModule</title>
<path fill="none" stroke="black" d="M92,-122.15C92,-135.74 92,-152 92,-152 92,-152 379.64,-152 379.64,-152 379.64,-152 379.64,-152.98 379.64,-152.98"/>
<polygon fill="black" stroke="black" points="376.14,-151.79 379.64,-161.79 383.14,-151.79 376.14,-151.79"/>
</g>
</g>
</svg>
